<?xml version="1.0" encoding="UTF-8" standalone="no"?>
<svg id="Vrstva_1" 

 viewBox="0 0 5050.44418 2130.967667" version="1.1"
   sodipodi:docname="logo.svg" inkscape:version="1.2.2 (732a01da63, 2022-12-09)"
   xmlns:inkscape="http://www.inkscape.org/namespaces/inkscape"
   xmlns:sodipodi="http://sodipodi.sourceforge.net/DTD/sodipodi-0.dtd" xmlns="http://www.w3.org/2000/svg"
   xmlns:svg="http://www.w3.org/2000/svg">
   <sodipodi:namedview id="namedview133" pagecolor="#ffffff" bordercolor="#000000" borderopacity="0.25"
      inkscape:showpageshadow="2" inkscape:pageopacity="0.0" inkscape:pagecheckerboard="0" inkscape:deskcolor="#d1d1d1"
      showgrid="false" inkscape:zoom="0.23958288" inkscape:cx="2525.2222" inkscape:cy="1064.3498"
      inkscape:window-width="1920" inkscape:window-height="1009" inkscape:window-x="-8" inkscape:window-y="-8"
      inkscape:window-maximized="1" inkscape:current-layer="Vrstva_1" />
   <defs id="defs126">
      <style id="style124">
         .cls-1 {
            fill: #fff;
         }

         .cls-2 {
            fill: #D6D8DC;
         }
      </style>
   </defs>
   <path class="cls-2"
      d="m538.00018,0C243.49038,0-45.64272,91.4108,6.03118,434.6736c16.3006,108.2831,49.7428,212.5465,92.5529,308.4023,88.8089-86.8236,144.6427-141.4076,144.6427-141.4076-33.6823-33.6823-31.778-73.3296,18.739-97.3125,3.051-1.4487,7.1876-3.4378,12.263-5.8932l-8.4161-17.2667c-12.8584,3.1547-24.8024-.3771-33.8205-18.8795-11.7288-24.0638-.5032-36.4488,16.7035-44.8347,17.205-8.3859,33.8761-9.5979,45.6053,14.4664,9.0164,18.5022,4.4415,30.0849-5.965,38.2695l8.4253,17.2872c17.7619-8.6655,40.4576-19.7812,66.4882-32.5473l-8.4257-17.2886c-12.8589,3.156-24.8037-.3758-33.821-18.879-11.7287-24.0638-.5028-36.4476,16.7036-44.8339,17.2054-8.3855,33.8761-9.5979,45.6044,14.4664,9.0181,18.5014,4.4419,30.0853-5.9646,38.2699l8.3982,17.2304c20.7849-10.1982,43.1585-21.18,66.4558-32.613l-8.3662-17.166c-12.8589,3.156-24.8029-.3767-33.8206-18.8786-11.7287-24.0638-.5036-36.4484,16.7027-44.8347,17.20631-8.3864,33.8766-9.5975,45.6048,14.4668,9.0182,18.5014,4.442,30.0844-5.9632,38.2686l8.3369,17.1069c21.7555-10.6741,44.0813-21.6232,66.4664-32.591l-8.3168-17.0633c-12.8576,3.1547-24.8028-.3766-33.8206-18.8794-11.7282-24.0642-.5023-36.4489,16.7031-44.8343,17.2059-8.386,33.877497-9.5983,45.605797,14.4659,9.0173,18.5023,4.4414,30.0849-5.9646,38.27l8.2945,17.019c22.474699-11.005,44.813299-21.9309,66.501298-32.5202l-8.3085-17.0471c-12.8583,3.1556-24.802699-.3767-33.820895-18.8789-11.728303-24.0643-.502704-36.4485,16.703496-44.8348,17.2054-8.3855,33.876099-9.5979,45.604899,14.4669,9.0181,18.5013,4.4414,30.0847-5.9645,38.269l8.3036,17.0378c23.484505-11.4505,45.910699-22.3579,66.575298-32.3684l-8.3912-17.2172c-12.8592,3.1555-24.802799-.3767-33.821399-18.8786-11.7283-24.0643-.5027-36.4484,16.7036-44.8347,17.2053-8.3864,33.875999-9.5979,45.605206,14.4663,9.017392,18.5014,4.441,30.0844-5.964107,38.2695l8.424,17.2859c15.8718-7.6609,30.348699-14.613,43.012399-20.6479,51.060499-24.3312,113.443797-4.5417,138.494397,46.1697,25.713199,52.0533,2.8934,113.6971-48.984499,138.8763-44.433999,21.5663-87.959698-9.6075-133.537897,44.6847,0,0-63.527798,80.1342-182.588292,226.6574-8.296603,10.2104-22.1802,14.2668-34.5522,9.7908-38.0678-13.774-80.92868-2.1253-109.3609,9.5437-18.1965,7.4681-34.6469,18.6113-48.3988,32.6745l-167.3841,171.1729c127.125,200.4418,277.9937,332.6228,339.4869,332.6228,104.1331,0,464.569686-379.0202,531.9691-826.7464C1121.643163,91.4108,832.509971,0,538.00018,0Z"
      id="path130" />
</svg>